M48
; DRILL file KiCad 10.0.3 date 2026-07-02T20:56:38
; FORMAT={-:-/ absolute / metric / decimal}
; #@! TF.CreationDate,2026-07-02T20:56:38+08:00
; #@! TF.GenerationSoftware,Kicad,Pcbnew,10.0.3
; #@! TF.FileFunction,Plated,1,2,PTH
FMAT,2
METRIC
; #@! TA.AperFunction,Plated,PTH,ViaDrill
T1C0.300
; #@! TA.AperFunction,Plated,PTH,ComponentDrill
T2C0.800
; #@! TA.AperFunction,Plated,PTH,ComponentDrill
T3C1.000
; #@! TA.AperFunction,Plated,PTH,ComponentDrill
T4C1.100
%
G90
G05
T1
X147.0Y-111.0
T2
X111.69Y-92.0
X112.38Y-113.0
X117.69Y-124.5
X118.69Y-79.0
X119.31Y-92.0
X120.0Y-113.0
X125.31Y-124.5
X126.31Y-79.0
X175.19Y-75.5
X175.69Y-121.0
X180.5Y-87.0
X181.19Y-108.0
X182.81Y-75.5
X183.31Y-121.0
X188.12Y-87.0
X188.81Y-108.0
T3
X138.73Y-82.5
X141.27Y-82.5
X144.5Y-91.46
X144.5Y-94.0
X144.5Y-96.54
X144.5Y-99.08
X144.5Y-101.62
X144.5Y-104.16
X144.5Y-106.7
X147.88Y-142.0
X148.42Y-82.5
X150.42Y-142.0
X150.96Y-82.5
X152.96Y-142.0
X153.5Y-82.5
X155.5Y-142.0
X159.0Y-91.5
X159.0Y-94.04
X159.0Y-96.58
X159.0Y-99.12
X159.0Y-101.66
X159.0Y-104.2
X159.0Y-106.74
T4
X112.5Y-97.5
X112.5Y-104.0
X117.0Y-97.5
X117.0Y-104.0
X183.5Y-96.0
X183.5Y-102.5
X188.0Y-96.0
X188.0Y-102.5
M30
