%TF.GenerationSoftware,KiCad,Pcbnew,10.0.3*%
%TF.CreationDate,2026-07-03T00:15:00+08:00*%
%TF.ProjectId,Badge,42616467-652e-46b6-9963-61645f706362,rev?*%
%TF.SameCoordinates,Original*%
%TF.FileFunction,Soldermask,Top*%
%TF.FilePolarity,Negative*%
%FSLAX46Y46*%
G04 Gerber Fmt 4.6, Leading zero omitted, Abs format (unit mm)*
G04 Created by KiCad (PCBNEW 10.0.3) date 2026-07-03 00:15:00*
%MOMM*%
%LPD*%
G01*
G04 APERTURE LIST*
G04 Aperture macros list*
%AMRoundRect*
0 Rectangle with rounded corners*
0 $1 Rounding radius*
0 $2 $3 $4 $5 $6 $7 $8 $9 X,Y pos of 4 corners*
0 Add a 4 corners polygon primitive as box body*
4,1,4,$2,$3,$4,$5,$6,$7,$8,$9,$2,$3,0*
0 Add four circle primitives for the rounded corners*
1,1,$1+$1,$2,$3*
1,1,$1+$1,$4,$5*
1,1,$1+$1,$6,$7*
1,1,$1+$1,$8,$9*
0 Add four rect primitives between the rounded corners*
20,1,$1+$1,$2,$3,$4,$5,0*
20,1,$1+$1,$4,$5,$6,$7,0*
20,1,$1+$1,$6,$7,$8,$9,0*
20,1,$1+$1,$8,$9,$2,$3,0*%
G04 Aperture macros list end*
%ADD10R,1.700000X1.700000*%
%ADD11C,1.700000*%
%ADD12RoundRect,0.250000X0.400000X1.450000X-0.400000X1.450000X-0.400000X-1.450000X0.400000X-1.450000X0*%
%ADD13C,1.600000*%
%ADD14C,2.000000*%
%ADD15RoundRect,0.250000X-0.400000X-1.450000X0.400000X-1.450000X0.400000X1.450000X-0.400000X1.450000X0*%
G04 APERTURE END LIST*
D10*
%TO.C,J2*%
X138730000Y-82500000D03*
D11*
X141270000Y-82500000D03*
%TD*%
D12*
%TO.C,D8*%
X173275000Y-71000000D03*
X177725000Y-71000000D03*
%TD*%
D13*
%TO.C,R5*%
X183310000Y-121000000D03*
X175690000Y-121000000D03*
%TD*%
D10*
%TO.C,J5*%
X159000000Y-91500000D03*
D11*
X159000000Y-94040000D03*
X159000000Y-96580000D03*
X159000000Y-99120000D03*
X159000000Y-101660000D03*
X159000000Y-104200000D03*
X159000000Y-106740000D03*
%TD*%
D12*
%TO.C,D5*%
X179000000Y-127500000D03*
X174550000Y-127500000D03*
%TD*%
D14*
%TO.C,SW1*%
X183500000Y-102500000D03*
X183500000Y-96000000D03*
X188000000Y-102500000D03*
X188000000Y-96000000D03*
%TD*%
D12*
%TO.C,D7*%
X185225000Y-81000000D03*
X180775000Y-81000000D03*
%TD*%
D13*
%TO.C,R6*%
X181190000Y-108000000D03*
X188810000Y-108000000D03*
%TD*%
%TO.C,R7*%
X180500000Y-87000000D03*
X188120000Y-87000000D03*
%TD*%
%TO.C,R8*%
X175190000Y-75500000D03*
X182810000Y-75500000D03*
%TD*%
D12*
%TO.C,D6*%
X185725000Y-115500000D03*
X181275000Y-115500000D03*
%TD*%
D13*
%TO.C,R3*%
X120000000Y-113000000D03*
X112380000Y-113000000D03*
%TD*%
%TO.C,R2*%
X119310000Y-92000000D03*
X111690000Y-92000000D03*
%TD*%
%TO.C,R1*%
X126310000Y-79000000D03*
X118690000Y-79000000D03*
%TD*%
%TO.C,R4*%
X125310000Y-124500000D03*
X117690000Y-124500000D03*
%TD*%
D10*
%TO.C,SW3*%
X148420000Y-82500000D03*
D11*
X150960000Y-82500000D03*
X153500000Y-82500000D03*
%TD*%
D10*
%TO.C,J1*%
X155500000Y-142000000D03*
D11*
X152960000Y-142000000D03*
X150420000Y-142000000D03*
X147880000Y-142000000D03*
%TD*%
D10*
%TO.C,J4*%
X144500000Y-91460000D03*
D11*
X144500000Y-94000000D03*
X144500000Y-96540000D03*
X144500000Y-99080000D03*
X144500000Y-101620000D03*
X144500000Y-104160000D03*
X144500000Y-106700000D03*
%TD*%
D14*
%TO.C,SW2*%
X112500000Y-104000000D03*
X112500000Y-97500000D03*
X117000000Y-104000000D03*
X117000000Y-97500000D03*
%TD*%
D15*
%TO.C,D3*%
X119725000Y-119000000D03*
X115275000Y-119000000D03*
%TD*%
%TO.C,D2*%
X119225000Y-84500000D03*
X114775000Y-84500000D03*
%TD*%
%TO.C,D4*%
X122775000Y-129000000D03*
X127225000Y-129000000D03*
%TD*%
%TO.C,D1*%
X123000000Y-72500000D03*
X127450000Y-72500000D03*
%TD*%
M02*
