%TF.GenerationSoftware,KiCad,Pcbnew,10.0.3*%
%TF.CreationDate,2026-07-03T00:14:59+08:00*%
%TF.ProjectId,Badge,42616467-652e-46b6-9963-61645f706362,rev?*%
%TF.SameCoordinates,Original*%
%TF.FileFunction,Copper,L1,Top*%
%TF.FilePolarity,Positive*%
%FSLAX46Y46*%
G04 Gerber Fmt 4.6, Leading zero omitted, Abs format (unit mm)*
G04 Created by KiCad (PCBNEW 10.0.3) date 2026-07-03 00:14:59*
%MOMM*%
%LPD*%
G01*
G04 APERTURE LIST*
G04 Aperture macros list*
%AMRoundRect*
0 Rectangle with rounded corners*
0 $1 Rounding radius*
0 $2 $3 $4 $5 $6 $7 $8 $9 X,Y pos of 4 corners*
0 Add a 4 corners polygon primitive as box body*
4,1,4,$2,$3,$4,$5,$6,$7,$8,$9,$2,$3,0*
0 Add four circle primitives for the rounded corners*
1,1,$1+$1,$2,$3*
1,1,$1+$1,$4,$5*
1,1,$1+$1,$6,$7*
1,1,$1+$1,$8,$9*
0 Add four rect primitives between the rounded corners*
20,1,$1+$1,$2,$3,$4,$5,0*
20,1,$1+$1,$4,$5,$6,$7,0*
20,1,$1+$1,$6,$7,$8,$9,0*
20,1,$1+$1,$8,$9,$2,$3,0*%
G04 Aperture macros list end*
%TA.AperFunction,ComponentPad*%
%ADD10R,1.700000X1.700000*%
%TD*%
%TA.AperFunction,ComponentPad*%
%ADD11C,1.700000*%
%TD*%
%TA.AperFunction,SMDPad,CuDef*%
%ADD12RoundRect,0.250000X0.400000X1.450000X-0.400000X1.450000X-0.400000X-1.450000X0.400000X-1.450000X0*%
%TD*%
%TA.AperFunction,ComponentPad*%
%ADD13C,1.600000*%
%TD*%
%TA.AperFunction,ComponentPad*%
%ADD14C,2.000000*%
%TD*%
%TA.AperFunction,SMDPad,CuDef*%
%ADD15RoundRect,0.250000X-0.400000X-1.450000X0.400000X-1.450000X0.400000X1.450000X-0.400000X1.450000X0*%
%TD*%
%TA.AperFunction,ViaPad*%
%ADD16C,0.600000*%
%TD*%
%TA.AperFunction,Conductor*%
%ADD17C,0.200000*%
%TD*%
G04 APERTURE END LIST*
D10*
%TO.P,J2,1,Pin_1_1*%
%TO.N,unconnected-(J2-Pin_1-Pad1)*%
X138730000Y-82500000D03*
D11*
%TO.P,J2,2,Pin_2_2*%
%TO.N,unconnected-(J2-Pin_2-Pad2)*%
X141270000Y-82500000D03*
%TD*%
D12*
%TO.P,D8,2,A_2*%
%TO.N,unconnected-(D6-A-Pad2)*%
X173275000Y-71000000D03*
%TO.P,D8,1,K_1*%
%TO.N,unconnected-(D6-K-Pad1)*%
X177725000Y-71000000D03*
%TD*%
D13*
%TO.P,R5,2*%
%TO.N,unconnected-(R2-Pad2)*%
X183310000Y-121000000D03*
%TO.P,R5,1*%
%TO.N,unconnected-(R2-Pad1)*%
X175690000Y-121000000D03*
%TD*%
D10*
%TO.P,J5,1,Pin_1_1*%
%TO.N,unconnected-(J4-Pin_1-Pad1)*%
X159000000Y-91500000D03*
D11*
%TO.P,J5,2,Pin_2_2*%
%TO.N,unconnected-(J4-Pin_2-Pad2)*%
X159000000Y-94040000D03*
%TO.P,J5,3,Pin_3_3*%
%TO.N,unconnected-(J4-Pin_3-Pad3)*%
X159000000Y-96580000D03*
%TO.P,J5,4,Pin_4_4*%
%TO.N,unconnected-(J4-Pin_4-Pad4)*%
X159000000Y-99120000D03*
%TO.P,J5,5,Pin_5_5*%
%TO.N,unconnected-(J4-Pin_5-Pad5)*%
X159000000Y-101660000D03*
%TO.P,J5,6,Pin_6_6*%
%TO.N,unconnected-(J4-Pin_6-Pad6)*%
X159000000Y-104200000D03*
%TO.P,J5,7,Pin_7_7*%
%TO.N,unconnected-(J4-Pin_7-Pad7)*%
X159000000Y-106740000D03*
%TD*%
D12*
%TO.P,D5,1,K_1*%
%TO.N,unconnected-(D5-K-Pad1)*%
X179000000Y-127500000D03*
%TO.P,D5,2,A_2*%
%TO.N,unconnected-(D5-A-Pad2)*%
X174550000Y-127500000D03*
%TD*%
D14*
%TO.P,SW1,1,1_1*%
%TO.N,unconnected-(SW2-Pad1)*%
X183500000Y-102500000D03*
X183500000Y-96000000D03*
%TO.P,SW1,2,2_2*%
%TO.N,unconnected-(SW2-Pad2)*%
X188000000Y-102500000D03*
X188000000Y-96000000D03*
%TD*%
D12*
%TO.P,D7,1,K_1*%
%TO.N,unconnected-(D4-K-Pad1)*%
X185225000Y-81000000D03*
%TO.P,D7,2,A_2*%
%TO.N,unconnected-(D4-A-Pad2)*%
X180775000Y-81000000D03*
%TD*%
D13*
%TO.P,R6,1*%
%TO.N,N/C*%
X181190000Y-108000000D03*
%TO.P,R6,2*%
X188810000Y-108000000D03*
%TD*%
%TO.P,R7,1*%
%TO.N,N/C*%
X180500000Y-87000000D03*
%TO.P,R7,2*%
X188120000Y-87000000D03*
%TD*%
%TO.P,R8,1*%
%TO.N,N/C*%
X175190000Y-75500000D03*
%TO.P,R8,2*%
X182810000Y-75500000D03*
%TD*%
D12*
%TO.P,D6,1,K_1*%
%TO.N,N/C*%
X185725000Y-115500000D03*
%TO.P,D6,2,A_2*%
X181275000Y-115500000D03*
%TD*%
D13*
%TO.P,R3,1*%
%TO.N,N/C*%
X120000000Y-113000000D03*
%TO.P,R3,2*%
X112380000Y-113000000D03*
%TD*%
%TO.P,R2,1*%
%TO.N,N/C*%
X119310000Y-92000000D03*
%TO.P,R2,2*%
X111690000Y-92000000D03*
%TD*%
%TO.P,R1,1*%
%TO.N,N/C*%
X126310000Y-79000000D03*
%TO.P,R1,2*%
X118690000Y-79000000D03*
%TD*%
%TO.P,R4,1*%
%TO.N,N/C*%
X125310000Y-124500000D03*
%TO.P,R4,2*%
X117690000Y-124500000D03*
%TD*%
D10*
%TO.P,SW3,1,A_1*%
%TO.N,unconnected-(SW1-A-Pad1)*%
X148420000Y-82500000D03*
D11*
%TO.P,SW3,2,B_2*%
%TO.N,N/C*%
X150960000Y-82500000D03*
%TO.P,SW3,3,C_3*%
%TO.N,unconnected-(SW1-C-Pad3)*%
X153500000Y-82500000D03*
%TD*%
D10*
%TO.P,J1,1,Pin_1_1*%
%TO.N,unconnected-(J1-Pin_1-Pad1)*%
X155500000Y-142000000D03*
D11*
%TO.P,J1,2,Pin_2_2*%
%TO.N,unconnected-(J1-Pin_2-Pad2)*%
X152960000Y-142000000D03*
%TO.P,J1,3,Pin_3_3*%
%TO.N,unconnected-(J1-Pin_3-Pad3)*%
X150420000Y-142000000D03*
%TO.P,J1,4,Pin_4_4*%
%TO.N,unconnected-(J1-Pin_4-Pad4)*%
X147880000Y-142000000D03*
%TD*%
D10*
%TO.P,J4,1,Pin_1_1*%
%TO.N,N/C*%
X144500000Y-91460000D03*
D11*
%TO.P,J4,2,Pin_2_2*%
X144500000Y-94000000D03*
%TO.P,J4,3,Pin_3_3*%
X144500000Y-96540000D03*
%TO.P,J4,4,Pin_4_4*%
X144500000Y-99080000D03*
%TO.P,J4,5,Pin_5_5*%
X144500000Y-101620000D03*
%TO.P,J4,6,Pin_6_6*%
X144500000Y-104160000D03*
%TO.P,J4,7,Pin_7_7*%
X144500000Y-106700000D03*
%TD*%
D14*
%TO.P,SW2,2,2_2*%
%TO.N,N/C*%
X112500000Y-104000000D03*
X112500000Y-97500000D03*
%TO.P,SW2,1,1_1*%
X117000000Y-104000000D03*
X117000000Y-97500000D03*
%TD*%
D15*
%TO.P,D3,2,A_2*%
%TO.N,N/C*%
X119725000Y-119000000D03*
%TO.P,D3,1,K_1*%
X115275000Y-119000000D03*
%TD*%
%TO.P,D2,2,A_2*%
%TO.N,N/C*%
X119225000Y-84500000D03*
%TO.P,D2,1,K_1*%
X114775000Y-84500000D03*
%TD*%
%TO.P,D4,1,K_1*%
%TO.N,N/C*%
X122775000Y-129000000D03*
%TO.P,D4,2,A_2*%
X127225000Y-129000000D03*
%TD*%
%TO.P,D1,1,K_1*%
%TO.N,N/C*%
X123000000Y-72500000D03*
%TO.P,D1,2,A_2*%
X127450000Y-72500000D03*
%TD*%
D16*
%TO.N,unconnected-(D6-A-Pad2)*%
X175190000Y-72915000D03*
%TO.N,unconnected-(D4-A-Pad2)*%
X181500000Y-84000000D03*
%TO.N,unconnected-(D4-K-Pad1)*%
X187000000Y-81500000D03*
%TO.N,unconnected-(D5-K-Pad1)*%
X178000000Y-132500000D03*
X182000000Y-124000000D03*
X126500000Y-133500000D03*
%TO.N,*%
X123000000Y-75500000D03*
X116500000Y-88500000D03*
X146000000Y-130500000D03*
%TO.N,unconnected-(J1-Pin_3-Pad3)*%
X147000000Y-111000000D03*
%TD*%
%TO.N,unconnected-(SW1-C-Pad3)*%
D17*
X159500000Y-91000000D02*
X159000000Y-91500000D01*
X171500000Y-91000000D02*
X159500000Y-91000000D01*
X179000000Y-85000000D02*
X178000000Y-86000000D01*
X179000000Y-84000000D02*
X179000000Y-85000000D01*
X176500000Y-86000000D02*
X171500000Y-91000000D01*
X178000000Y-86000000D02*
X176500000Y-86000000D01*
X177500000Y-82500000D02*
X179000000Y-84000000D01*
X153500000Y-82500000D02*
X177500000Y-82500000D01*
%TO.N,unconnected-(D6-K-Pad1)*%
X187000000Y-79000000D02*
X187000000Y-81500000D01*
X181500000Y-72500000D02*
X185500000Y-76500000D01*
X185500000Y-76500000D02*
X185500000Y-77500000D01*
X185500000Y-77500000D02*
X187000000Y-79000000D01*
X179225000Y-72500000D02*
X181500000Y-72500000D01*
X177725000Y-71000000D02*
X179225000Y-72500000D01*
%TO.N,unconnected-(D4-A-Pad2)*%
X180775000Y-83275000D02*
X181500000Y-84000000D01*
X180775000Y-81000000D02*
X180775000Y-83275000D01*
%TO.N,unconnected-(D4-K-Pad1)*%
X186500000Y-81000000D02*
X187000000Y-81500000D01*
X185225000Y-81000000D02*
X186500000Y-81000000D01*
X185225000Y-81000000D02*
X185225000Y-81225000D01*
%TO.N,unconnected-(D5-K-Pad1)*%
X179000000Y-132500000D02*
X178000000Y-132500000D01*
X185725000Y-125775000D02*
X179000000Y-132500000D01*
X185725000Y-115500000D02*
X185725000Y-125775000D01*
X182000000Y-124500000D02*
X182000000Y-124000000D01*
X179000000Y-127500000D02*
X182000000Y-124500000D01*
%TO.N,unconnected-(R2-Pad1)*%
X181500000Y-121000000D02*
X183000000Y-121000000D01*
X178500000Y-118000000D02*
X181500000Y-121000000D01*
X178500000Y-118190000D02*
X178500000Y-118000000D01*
%TO.N,unconnected-(R2-Pad2)*%
X179000000Y-131500000D02*
X165000000Y-131500000D01*
X183310000Y-127190000D02*
X179000000Y-131500000D01*
X183310000Y-121000000D02*
X183310000Y-127190000D01*
%TO.N,unconnected-(R2-Pad1)*%
X178500000Y-118000000D02*
X178500000Y-115500000D01*
X178500000Y-115500000D02*
X179500000Y-114500000D01*
X179500000Y-114500000D02*
X179500000Y-109690000D01*
X179500000Y-109690000D02*
X181190000Y-108000000D01*
X181275000Y-108085000D02*
X181190000Y-108000000D01*
%TO.N,unconnected-(D5-A-Pad2)*%
X174550000Y-121950000D02*
X175500000Y-121000000D01*
X174550000Y-127500000D02*
X174550000Y-121950000D01*
%TO.N,unconnected-(D5-K-Pad1)*%
X122775000Y-129775000D02*
X126500000Y-133500000D01*
X122775000Y-129000000D02*
X122775000Y-129775000D01*
%TO.N,unconnected-(D4-A-Pad2)*%
X126500000Y-119500000D02*
X126500000Y-122000000D01*
X121750000Y-114750000D02*
X126500000Y-119500000D01*
X120500000Y-110500000D02*
X122000000Y-112000000D01*
X113000000Y-110500000D02*
X120500000Y-110500000D01*
X112380000Y-111120000D02*
X113000000Y-110500000D01*
X122000000Y-112000000D02*
X122000000Y-114500000D01*
X112380000Y-113000000D02*
X112380000Y-111120000D01*
X126500000Y-122000000D02*
X127500000Y-122000000D01*
X122000000Y-114500000D02*
X121750000Y-114750000D01*
X129000000Y-123500000D02*
X129000000Y-124000000D01*
X120190000Y-122000000D02*
X126500000Y-122000000D01*
X117690000Y-124500000D02*
X120190000Y-122000000D01*
X127500000Y-122000000D02*
X129000000Y-123500000D01*
X120000000Y-118725000D02*
X120000000Y-113000000D01*
X119725000Y-119000000D02*
X120000000Y-118725000D01*
%TO.N,unconnected-(D5-K-Pad1)*%
X118500000Y-128000000D02*
X119500000Y-129000000D01*
X119500000Y-129000000D02*
X122775000Y-129000000D01*
X115275000Y-124775000D02*
X118500000Y-128000000D01*
X115275000Y-119000000D02*
X115275000Y-124775000D01*
%TO.N,*%
X122000000Y-102500000D02*
X122500000Y-102000000D01*
X120500000Y-102500000D02*
X122000000Y-102500000D01*
X120500000Y-101000000D02*
X120500000Y-102500000D01*
%TO.N,unconnected-(D4-A-Pad2)*%
X118690000Y-79000000D02*
X122500000Y-82810000D01*
X121000000Y-90500000D02*
X122500000Y-89000000D01*
X121000000Y-90500000D02*
X121000000Y-90310000D01*
X122500000Y-89000000D02*
X122500000Y-85500000D01*
X121000000Y-94000000D02*
X121000000Y-90500000D01*
X120500000Y-94500000D02*
X121000000Y-94000000D01*
X113000000Y-94500000D02*
X120500000Y-94500000D01*
X111690000Y-93190000D02*
X113000000Y-94500000D01*
X111690000Y-92000000D02*
X111690000Y-93190000D01*
%TO.N,*%
X123000000Y-72500000D02*
X123000000Y-75500000D01*
X114775000Y-86775000D02*
X116500000Y-88500000D01*
X114775000Y-84500000D02*
X114775000Y-86775000D01*
%TO.N,unconnected-(J4-Pin_7-Pad7)*%
X169500000Y-94000000D02*
X177000000Y-86500000D01*
X164000000Y-101500000D02*
X169500000Y-96000000D01*
X169500000Y-96000000D02*
X169500000Y-94000000D01*
X161260000Y-106740000D02*
X164000000Y-104000000D01*
X164000000Y-104000000D02*
X164000000Y-101500000D01*
X159000000Y-106740000D02*
X161260000Y-106740000D01*
X178479875Y-86469812D02*
X177030188Y-86469812D01*
X178949687Y-86000000D02*
X178479875Y-86469812D01*
X179500000Y-86000000D02*
X178949687Y-86000000D01*
X179500000Y-86000000D02*
X180000000Y-86500000D01*
X179500000Y-79810000D02*
X179500000Y-86000000D01*
%TO.N,*%
X145000000Y-129500000D02*
X146000000Y-130500000D01*
X138000000Y-112000000D02*
X138000000Y-117000000D01*
X138000000Y-117000000D02*
X145000000Y-124000000D01*
X145000000Y-124000000D02*
X145000000Y-129500000D01*
X128000000Y-102000000D02*
X138000000Y-112000000D01*
X117000000Y-97500000D02*
X120500000Y-101000000D01*
X122500000Y-102000000D02*
X128000000Y-102000000D01*
%TO.N,unconnected-(SW2-Pad2)*%
X142500000Y-98000000D02*
X143500000Y-99000000D01*
X142500000Y-92500000D02*
X142500000Y-98000000D01*
X139500000Y-89500000D02*
X142500000Y-92500000D01*
X127000000Y-86000000D02*
X130500000Y-89500000D01*
X126500000Y-86000000D02*
X127000000Y-86000000D01*
X130500000Y-89500000D02*
X139500000Y-89500000D01*
X126000000Y-85500000D02*
X126500000Y-86000000D01*
X124500000Y-85500000D02*
X126000000Y-85500000D01*
X124000000Y-84000000D02*
X124000000Y-85000000D01*
X128500000Y-79500000D02*
X124000000Y-84000000D01*
X128500000Y-75000000D02*
X128500000Y-79500000D01*
X135500000Y-68000000D02*
X128500000Y-75000000D01*
X176000000Y-68000000D02*
X135500000Y-68000000D01*
X176000000Y-73500000D02*
X176000000Y-68000000D01*
X143500000Y-99000000D02*
X144500000Y-99000000D01*
X178500000Y-74000000D02*
X176500000Y-74000000D01*
X183000000Y-78500000D02*
X178500000Y-74000000D01*
X124000000Y-85000000D02*
X124500000Y-85500000D01*
X176500000Y-74000000D02*
X176000000Y-73500000D01*
X183000000Y-91000000D02*
X183000000Y-78500000D01*
X188000000Y-96000000D02*
X183000000Y-91000000D01*
%TO.N,unconnected-(SW1-C-Pad3)*%
X159500000Y-96500000D02*
X158500000Y-96500000D01*
%TO.N,unconnected-(J4-Pin_7-Pad7)*%
X175190000Y-75500000D02*
X179500000Y-79810000D01*
%TO.N,unconnected-(D6-A-Pad2)*%
X173275000Y-71000000D02*
X175190000Y-72915000D01*
%TO.N,unconnected-(J2-Pin_2-Pad2)*%
X151000000Y-81000000D02*
X151000000Y-82500000D01*
X144500000Y-82500000D02*
X146000000Y-81000000D01*
X146000000Y-81000000D02*
X151000000Y-81000000D01*
X141270000Y-82500000D02*
X144500000Y-82500000D01*
X151000000Y-82000000D02*
X151000000Y-82500000D01*
X151500000Y-82000000D02*
X151000000Y-82000000D01*
%TO.N,unconnected-(J1-Pin_3-Pad3)*%
X147000000Y-112000000D02*
X147000000Y-111000000D01*
X151500000Y-116500000D02*
X147000000Y-112000000D01*
X151500000Y-140920000D02*
X151500000Y-116500000D01*
X150420000Y-142000000D02*
X151500000Y-140920000D01*
%TO.N,unconnected-(J1-Pin_4-Pad4)*%
X148000000Y-141500000D02*
X147500000Y-142000000D01*
X148000000Y-140000000D02*
X148000000Y-141500000D01*
X151000000Y-137000000D02*
X148000000Y-140000000D01*
X151000000Y-116500000D02*
X151000000Y-137000000D01*
X146500000Y-112000000D02*
X151000000Y-116500000D01*
X146500000Y-96000000D02*
X146500000Y-112000000D01*
X144500000Y-94000000D02*
X146500000Y-96000000D01*
%TO.N,unconnected-(J4-Pin_6-Pad6)*%
X154000000Y-131500000D02*
X165000000Y-131500000D01*
X153000000Y-130500000D02*
X154000000Y-131500000D01*
X153000000Y-122500000D02*
X153000000Y-130500000D01*
X155000000Y-118500000D02*
X155000000Y-120500000D01*
X157500000Y-116000000D02*
X155000000Y-118500000D01*
X157500000Y-105000000D02*
X157500000Y-116000000D01*
X155000000Y-120500000D02*
X153000000Y-122500000D01*
X158200000Y-105000000D02*
X157500000Y-105000000D01*
X159000000Y-104200000D02*
X158200000Y-105000000D01*
%TO.N,unconnected-(D4-A-Pad2)*%
X150500000Y-131000000D02*
X150500000Y-117500000D01*
X136500000Y-131500000D02*
X150000000Y-131500000D01*
X150000000Y-131500000D02*
X150500000Y-131000000D01*
X129000000Y-124000000D02*
X136500000Y-131500000D01*
X150500000Y-117500000D02*
X144500000Y-111500000D01*
X125310000Y-124500000D02*
X125810000Y-124000000D01*
X144500000Y-111500000D02*
X144500000Y-106700000D01*
%TO.N,unconnected-(J1-Pin_2-Pad2)*%
X152000000Y-141040000D02*
X152960000Y-142000000D01*
X157000000Y-112500000D02*
X152000000Y-117500000D01*
X157000000Y-96500000D02*
X157000000Y-112500000D01*
X157080000Y-96580000D02*
X157000000Y-96500000D01*
X159000000Y-96580000D02*
X157080000Y-96580000D01*
X152000000Y-117500000D02*
X152000000Y-141040000D01*
%TO.N,unconnected-(R2-Pad1)*%
X175690000Y-121000000D02*
X175500000Y-121000000D01*
%TO.N,unconnected-(D4-A-Pad2)*%
X123500000Y-86500000D02*
X122500000Y-85500000D01*
X127000000Y-86500000D02*
X123500000Y-86500000D01*
X130500000Y-90000000D02*
X127000000Y-86500000D01*
X132000000Y-90000000D02*
X130500000Y-90000000D01*
X141500000Y-105500000D02*
X136000000Y-100000000D01*
X141500000Y-107000000D02*
X141500000Y-105500000D01*
X142500000Y-107000000D02*
X141500000Y-107000000D01*
X136000000Y-100000000D02*
X136000000Y-97000000D01*
X142500000Y-106160000D02*
X142500000Y-107000000D01*
X144500000Y-104160000D02*
X142500000Y-106160000D01*
X136000000Y-97000000D02*
X132000000Y-93000000D01*
X132000000Y-93000000D02*
X132000000Y-90000000D01*
X122500000Y-85500000D02*
X122500000Y-82810000D01*
X120000000Y-118725000D02*
X119725000Y-119000000D01*
X180500000Y-81840686D02*
X181057843Y-81282843D01*
X125310000Y-124500000D02*
X125310000Y-127085000D01*
X125310000Y-127085000D02*
X127225000Y-129000000D01*
%TO.N,unconnected-(D6-K-Pad1)*%
X178310000Y-71000000D02*
X177725000Y-71000000D01*
%TO.N,unconnected-(D4-A-Pad2)*%
X180500000Y-81275000D02*
X180775000Y-81000000D01*
%TO.N,unconnected-(D5-K-Pad1)*%
X185725000Y-115500000D02*
X185725000Y-111085000D01*
X185725000Y-111085000D02*
X188810000Y-108000000D01*
X122190000Y-129000000D02*
X122775000Y-129000000D01*
X115275000Y-119000000D02*
X115275000Y-118775000D01*
%TO.N,unconnected-(D4-A-Pad2)*%
X119225000Y-91915000D02*
X119310000Y-92000000D01*
X119225000Y-84500000D02*
X119225000Y-91915000D01*
X127450000Y-77860000D02*
X126310000Y-79000000D01*
X127450000Y-72500000D02*
X127450000Y-77860000D01*
%TD*%
M02*
