%TF.GenerationSoftware,KiCad,Pcbnew,10.0.3*%
%TF.CreationDate,2026-07-02T21:05:35+08:00*%
%TF.ProjectId,Badge,42616467-652e-46b6-9963-61645f706362,rev?*%
%TF.SameCoordinates,Original*%
%TF.FileFunction,Legend,Bot*%
%TF.FilePolarity,Positive*%
%FSLAX46Y46*%
G04 Gerber Fmt 4.6, Leading zero omitted, Abs format (unit mm)*
G04 Created by KiCad (PCBNEW 10.0.3) date 2026-07-02 21:05:35*
%MOMM*%
%LPD*%
G01*
G04 APERTURE LIST*
%ADD10C,0.150000*%
%ADD11C,0.120000*%
G04 APERTURE END LIST*
D10*
X135414819Y-82166666D02*
X136129104Y-82166666D01*
X136129104Y-82166666D02*
X136271961Y-82119047D01*
X136271961Y-82119047D02*
X136367200Y-82023809D01*
X136367200Y-82023809D02*
X136414819Y-81880952D01*
X136414819Y-81880952D02*
X136414819Y-81785714D01*
X135510057Y-82595238D02*
X135462438Y-82642857D01*
X135462438Y-82642857D02*
X135414819Y-82738095D01*
X135414819Y-82738095D02*
X135414819Y-82976190D01*
X135414819Y-82976190D02*
X135462438Y-83071428D01*
X135462438Y-83071428D02*
X135510057Y-83119047D01*
X135510057Y-83119047D02*
X135605295Y-83166666D01*
X135605295Y-83166666D02*
X135700533Y-83166666D01*
X135700533Y-83166666D02*
X135843390Y-83119047D01*
X135843390Y-83119047D02*
X136414819Y-82547619D01*
X136414819Y-82547619D02*
X136414819Y-83166666D01*
X159333333Y-88574819D02*
X159333333Y-89289104D01*
X159333333Y-89289104D02*
X159380952Y-89431961D01*
X159380952Y-89431961D02*
X159476190Y-89527200D01*
X159476190Y-89527200D02*
X159619047Y-89574819D01*
X159619047Y-89574819D02*
X159714285Y-89574819D01*
X158428571Y-88908152D02*
X158428571Y-89574819D01*
X158666666Y-88527200D02*
X158904761Y-89241485D01*
X158904761Y-89241485D02*
X158285714Y-89241485D01*
X146057200Y-81166667D02*
X146104819Y-81309524D01*
X146104819Y-81309524D02*
X146104819Y-81547619D01*
X146104819Y-81547619D02*
X146057200Y-81642857D01*
X146057200Y-81642857D02*
X146009580Y-81690476D01*
X146009580Y-81690476D02*
X145914342Y-81738095D01*
X145914342Y-81738095D02*
X145819104Y-81738095D01*
X145819104Y-81738095D02*
X145723866Y-81690476D01*
X145723866Y-81690476D02*
X145676247Y-81642857D01*
X145676247Y-81642857D02*
X145628628Y-81547619D01*
X145628628Y-81547619D02*
X145581009Y-81357143D01*
X145581009Y-81357143D02*
X145533390Y-81261905D01*
X145533390Y-81261905D02*
X145485771Y-81214286D01*
X145485771Y-81214286D02*
X145390533Y-81166667D01*
X145390533Y-81166667D02*
X145295295Y-81166667D01*
X145295295Y-81166667D02*
X145200057Y-81214286D01*
X145200057Y-81214286D02*
X145152438Y-81261905D01*
X145152438Y-81261905D02*
X145104819Y-81357143D01*
X145104819Y-81357143D02*
X145104819Y-81595238D01*
X145104819Y-81595238D02*
X145152438Y-81738095D01*
X145104819Y-82071429D02*
X146104819Y-82309524D01*
X146104819Y-82309524D02*
X145390533Y-82500000D01*
X145390533Y-82500000D02*
X146104819Y-82690476D01*
X146104819Y-82690476D02*
X145104819Y-82928572D01*
X146104819Y-83833333D02*
X146104819Y-83261905D01*
X146104819Y-83547619D02*
X145104819Y-83547619D01*
X145104819Y-83547619D02*
X145247676Y-83452381D01*
X145247676Y-83452381D02*
X145342914Y-83357143D01*
X145342914Y-83357143D02*
X145390533Y-83261905D01*
X144833333Y-88534819D02*
X144833333Y-89249104D01*
X144833333Y-89249104D02*
X144880952Y-89391961D01*
X144880952Y-89391961D02*
X144976190Y-89487200D01*
X144976190Y-89487200D02*
X145119047Y-89534819D01*
X145119047Y-89534819D02*
X145214285Y-89534819D01*
X143928571Y-88868152D02*
X143928571Y-89534819D01*
X144166666Y-88487200D02*
X144404761Y-89201485D01*
X144404761Y-89201485D02*
X143785714Y-89201485D01*
%TO.C,J2*%
D11*
X140000000Y-81170000D02*
X142600000Y-81170000D01*
X140000000Y-81170000D02*
X140000000Y-83830000D01*
X142600000Y-81170000D02*
X142600000Y-83830000D01*
X137400000Y-82500000D02*
X137400000Y-83830000D01*
X137400000Y-83830000D02*
X138730000Y-83830000D01*
X140000000Y-83830000D02*
X142600000Y-83830000D01*
%TO.C,J4*%
X157620000Y-92770000D02*
X157620000Y-108120000D01*
X160380000Y-90120000D02*
X159000000Y-90120000D01*
X160380000Y-91500000D02*
X160380000Y-90120000D01*
X160380000Y-92770000D02*
X157620000Y-92770000D01*
X160380000Y-92770000D02*
X160380000Y-108120000D01*
X160380000Y-108120000D02*
X157620000Y-108120000D01*
%TO.C,SW1*%
X149690000Y-81170000D02*
X154830000Y-81170000D01*
X149690000Y-81170000D02*
X149690000Y-83830000D01*
X154830000Y-81170000D02*
X154830000Y-83830000D01*
X147090000Y-82500000D02*
X147090000Y-83830000D01*
X147090000Y-83830000D02*
X148420000Y-83830000D01*
X149690000Y-83830000D02*
X154830000Y-83830000D01*
%TO.C,J4*%
X145880000Y-90080000D02*
X144500000Y-90080000D01*
X145880000Y-91460000D02*
X145880000Y-90080000D01*
X145880000Y-92730000D02*
X145880000Y-108080000D01*
X145880000Y-92730000D02*
X143120000Y-92730000D01*
X145880000Y-108080000D02*
X143120000Y-108080000D01*
X143120000Y-92730000D02*
X143120000Y-108080000D01*
%TD*%
M02*
